<svg width="108" height="52" viewBox="0 0 108 52" fill="none" xmlns="http://www.w3.org/2000/svg">
<path d="M12.002 52C6.01507 46.7401 2.24029 39.0522 2.24029 30.4884C2.24029 14.6334 15.1791 1.78034 31.14 1.78034C37.4489 1.78034 43.2857 3.78851 48.0378 7.19647C42.9405 2.71817 36.2397 0 28.8997 0C12.9389 0 0 12.853 0 28.7081C0 38.296 4.73167 46.7862 12.002 52Z" fill="white"/>
<path d="M17.8434 17.2862L20.9854 16.0803L26.841 25.7275H27.1981L32.8751 15.832L35.8029 17.2862L28.8762 27.962L36.517 38.8152L33.4821 39.9502L26.8767 30.5866L26.6268 30.5512L21.0926 39.9856L18.1648 38.8152L24.8416 27.7492L17.8434 17.2862Z" fill="white"/>
<path d="M38.0844 31.2899L39.3296 31.1525L39.4852 32.7845L39.589 32.7674C40.2001 31.622 41.0014 31.0494 41.9929 31.0494C42.4541 31.0494 42.9268 31.1925 43.4111 31.4789L42.8058 32.8017C42.3907 32.5383 41.9872 32.4066 41.5952 32.4066C41.2147 32.4066 40.8746 32.5784 40.5748 32.922C40.275 33.2541 40.0387 33.7122 39.8657 34.2964C39.7043 34.869 39.6236 35.5448 39.6236 36.3236C39.6236 37.1024 39.6524 38.1103 39.7101 39.3472L38.1017 39.4159C38.1247 37.5605 38.1363 36.0258 38.1363 34.8118L38.0844 31.2899Z" fill="white"/>
<path d="M47.7363 31.1353C49.8232 31.1353 50.8666 32.4409 50.8666 35.0523C50.8666 36.3465 50.538 37.4059 49.8808 38.2305C49.2236 39.0552 48.3532 39.4675 47.2694 39.4675C46.1971 39.4675 45.3785 39.1124 44.8136 38.4023C44.2601 37.6808 43.9834 36.7187 43.9834 35.5161C43.9834 34.8289 44.116 34.1646 44.3812 33.5233C44.6464 32.8704 45.073 32.3092 45.661 31.8397C46.2605 31.3701 46.9523 31.1353 47.7363 31.1353ZM45.3497 35.2584C45.3497 36.0716 45.5226 36.7702 45.8685 37.3544C46.2144 37.9385 46.6987 38.2305 47.3213 38.2305C47.9554 38.2305 48.4569 37.9786 48.8259 37.4746C49.2064 36.9592 49.3966 36.2319 49.3966 35.2928C49.3966 33.3228 48.8028 32.3379 47.6153 32.3379C46.8774 32.3379 46.3124 32.6242 45.9204 33.1969C45.5399 33.7581 45.3497 34.4453 45.3497 35.2584Z" fill="white"/>
<path d="M53.7879 33.2999C54.9755 31.8225 56.0535 31.0837 57.022 31.0837C58.3825 31.0837 59.0627 32.0344 59.0627 33.9356V35.6192C59.0627 37.509 59.08 38.7459 59.1146 39.33L57.61 39.4331C57.6561 37.2341 57.6792 35.7166 57.6792 34.8805C57.6792 34.0329 57.61 33.4259 57.4716 33.0594C57.3333 32.6929 57.0508 32.5097 56.6242 32.5097C56.2091 32.5097 55.7191 32.7845 55.1542 33.3343C54.5892 33.884 54.226 34.4682 54.0646 35.0866C53.9032 35.7051 53.8225 36.5526 53.8225 37.6292L53.909 39.33L52.3698 39.4331C52.3467 36.6271 52.3352 34.8976 52.3352 34.2448L52.2487 31.3586L53.4074 31.3071L53.6668 33.2827L53.7879 33.2999Z" fill="white"/>
<path d="M64.3721 31.1353C66.459 31.1353 67.5024 32.4409 67.5024 35.0523C67.5024 36.3465 67.1738 37.4059 66.5166 38.2305C65.8594 39.0552 64.989 39.4675 63.9052 39.4675C62.8329 39.4675 62.0143 39.1124 61.4494 38.4023C60.8959 37.6808 60.6192 36.7187 60.6192 35.5161C60.6192 34.8289 60.7518 34.1646 61.017 33.5233C61.2822 32.8704 61.7088 32.3092 62.2968 31.8397C62.8963 31.3701 63.5881 31.1353 64.3721 31.1353ZM61.9855 35.2584C61.9855 36.0716 62.1584 36.7702 62.5043 37.3544C62.8502 37.9385 63.3345 38.2305 63.9571 38.2305C64.5912 38.2305 65.0927 37.9786 65.4617 37.4746C65.8421 36.9592 66.0324 36.2319 66.0324 35.2928C66.0324 33.3228 65.4386 32.3379 64.2511 32.3379C63.5132 32.3379 62.9482 32.6242 62.5562 33.1969C62.1757 33.7581 61.9855 34.4453 61.9855 35.2584Z" fill="white"/>
<path d="M68.1581 28.2319L68.1062 26.9606L71.0117 26.8232C70.9079 31.2555 70.8561 33.8497 70.8561 34.6056L70.8215 39.33L69.4379 39.4331V34.5712C69.4379 32.9449 69.4091 30.7745 69.3514 28.0601L68.1581 28.2319Z" fill="white"/>
<path d="M76.431 31.1353C78.5178 31.1353 79.5613 32.4409 79.5613 35.0523C79.5613 36.3465 79.2327 37.4059 78.5755 38.2305C77.9183 39.0552 77.0478 39.4675 75.964 39.4675C74.8917 39.4675 74.0732 39.1124 73.5082 38.4023C72.9548 37.6808 72.6781 36.7187 72.6781 35.5161C72.6781 34.8289 72.8106 34.1646 73.0758 33.5233C73.341 32.8704 73.7676 32.3092 74.3556 31.8397C74.9552 31.3701 75.6469 31.1353 76.431 31.1353ZM74.0443 35.2584C74.0443 36.0716 74.2173 36.7702 74.5632 37.3544C74.909 37.9385 75.3933 38.2305 76.0159 38.2305C76.65 38.2305 77.1516 37.9786 77.5205 37.4746C77.901 36.9592 78.0912 36.2319 78.0912 35.2928C78.0912 33.3228 77.4975 32.3379 76.3099 32.3379C75.572 32.3379 75.007 32.6242 74.615 33.1969C74.2346 33.7581 74.0443 34.4453 74.0443 35.2584Z" fill="white"/>
<path d="M80.7185 34.9148C80.7185 33.7924 81.0067 32.8647 81.5832 32.1317C82.1712 31.3873 82.9956 31.015 84.0563 31.015C85.1286 31.015 85.9241 31.3357 86.443 31.9771L86.5986 31.9256L86.7889 30.9291L87.8957 31.0322C87.9303 33.1396 87.9476 35.3042 87.9476 37.5262C87.9476 38.8089 87.7401 39.9886 87.325 41.0652C87.1059 41.6493 86.7716 42.1189 86.3219 42.4739C85.8723 42.8404 85.3015 43.0237 84.6098 43.0237C83.918 43.0237 83.2781 42.9034 82.6901 42.6629C82.1021 42.4224 81.5544 41.9528 81.0471 41.2542L82.2577 40.2577C82.546 40.6701 82.9264 41.0079 83.3991 41.2713C83.8719 41.5462 84.333 41.6837 84.7827 41.6837C85.2324 41.6837 85.584 41.4775 85.8377 41.0652C86.2758 40.3665 86.4949 39.3873 86.4949 38.1274C86.4949 37.8068 86.4776 37.5433 86.443 37.3372C85.7512 38.2763 84.9441 38.7459 84.0218 38.7459C83.2493 38.7459 82.6036 38.5512 82.0848 38.1618C81.5659 37.7724 81.2085 37.3028 81.0125 36.7531C80.8165 36.2033 80.7185 35.5906 80.7185 34.9148ZM84.1082 37.3544C84.7885 37.3544 85.3534 37.0737 85.8031 36.5125C86.2643 35.9513 86.4949 35.3386 86.4949 34.6743C86.4949 33.9986 86.2643 33.4316 85.8031 32.9735C85.3534 32.5154 84.8346 32.2863 84.2466 32.2863C83.6701 32.2863 83.1801 32.5497 82.7765 33.0766C82.373 33.592 82.1712 34.1876 82.1712 34.8633C82.1712 35.5276 82.3211 36.1117 82.6209 36.6156C82.9322 37.1081 83.428 37.3544 84.1082 37.3544Z" fill="white"/>
<path d="M89.3243 32.1832L89.3761 31.0494H91.953V39.3472L90.5868 39.4159C90.5868 38.305 90.5637 36.9592 90.5176 35.3787C90.4715 33.7867 90.4426 32.7101 90.4311 32.1489L89.3243 32.1832ZM92.2816 29.0909C92.2816 29.4001 92.1836 29.6578 91.9876 29.864C91.8031 30.0701 91.5495 30.1732 91.2267 30.1732C90.9038 30.1732 90.6502 30.1045 90.4657 29.9671C90.2927 29.8182 90.2063 29.612 90.2063 29.3486C90.2063 29.0737 90.3158 28.8332 90.5349 28.627C90.7539 28.4209 91.0422 28.3178 91.3996 28.3178C91.9876 28.3178 92.2816 28.5755 92.2816 29.0909Z" fill="white"/>
<path d="M99.4525 31.1009L101.095 31.4102C99.4467 35.854 98.4782 38.5283 98.19 39.4331C97.9133 40.3379 97.7057 40.9507 97.5674 41.2713C97.4405 41.592 97.2561 41.9242 97.0139 42.2678C96.5412 42.9321 95.8206 43.2642 94.8521 43.2642C93.8952 43.2642 93.0766 43.0867 92.3963 42.7316L92.8287 41.3916C93.532 41.7925 94.2584 41.9929 95.0078 41.9929C95.5151 41.9929 95.9244 41.8039 96.2357 41.426C96.547 41.0595 96.7026 40.6471 96.7026 40.189C96.7026 39.7423 96.5124 39.0265 96.1319 38.0415L93.3994 31.4273L95.0943 31.0322L97.4809 37.801L99.4525 31.1009Z" fill="white"/>
<path d="M104.455 39.4846C103.705 39.4846 103.088 39.267 102.604 38.8318C102.131 38.3851 101.895 37.7896 101.895 37.0451C101.895 36.3007 102.166 35.6936 102.708 35.2241C103.25 34.7545 103.89 34.5197 104.628 34.5197C105.365 34.5197 105.994 34.7545 106.513 35.2241V34.5712C106.513 33.8611 106.369 33.3114 106.08 32.922C105.804 32.5211 105.458 32.3207 105.043 32.3207C104.628 32.3207 104.264 32.418 103.953 32.6127C103.653 32.796 103.336 33.0823 103.002 33.4717L102.224 32.5956C103.008 31.5877 103.993 31.0837 105.181 31.0837C107.049 31.0837 107.983 32.1317 107.983 34.2276C107.983 36.3236 107.988 38.0358 108 39.3644H106.772L106.72 38.6085L106.668 38.5741C106.507 38.8032 106.207 39.0151 105.769 39.2098C105.342 39.393 104.904 39.4846 104.455 39.4846ZM106.53 36.942C106.518 36.5297 106.345 36.209 106.011 35.98C105.677 35.7509 105.273 35.6364 104.801 35.6364C104.328 35.6364 103.959 35.7681 103.694 36.0315C103.428 36.2949 103.296 36.6099 103.296 36.9764C103.296 37.3429 103.428 37.6636 103.694 37.9385C103.97 38.2019 104.345 38.3336 104.818 38.3336C105.291 38.3336 105.688 38.2191 106.011 37.99C106.345 37.7495 106.518 37.4002 106.53 36.942Z" fill="white"/>
</svg>
